# xmcd
#
# Track frame offsets:
#	183
#	10745
#	24620
#	35295
#	48170
#	60158
#	72645
#	83495
#	97070
#	111533
#	122383
#	134370
#	145958
#	158170
#	170195
#	180945
#
# Disc length: 2564
#
# Revision: 2
# Processed by: cddbd v1.5.1PL0 Copyright (c) Steve Scherf et al.
# Submitted via: CDex 1.40Beta9
# Normalized: r1:TDELIM( - )
#
DISCID=d10a0210
DTITLE=Various Artist - The Contry Classics Collectin [CD2)
DYEAR=1900
DGENRE=Country
TTITLE0=Johnny Cash - Train of love
TTITLE1=Barbara Fairchild - Teddy bear song
TTITLE2=Frankie Laine - Sixteen tons
TTITLE3=Johnny Paycheck - Talk about me
TTITLE4=Billy Jo Spears - Look what they've don to my song
TTITLE5=Willie Nelson - Shelter of your arms
TTITLE6=Faron Young - Wine me up
TTITLE7=Kenny Rogers - Shine on ruby mountain
TTITLE8=Patsy Cline - Then you'll know
TTITLE9=Stonewall Jackson - Things to talk about
TTITLE10=Johnny Cash - You're the nearest thing to heaven
TTITLE11=Roger Miller - Little green apples
TTITLE12=Faron Young - Sweet dreams
TTITLE13=Roy Drusky - Luckinback Texas
TTITLE14=Waylon Jennings - Sally was a good old girl
TTITLE15=B J Thomas - How many tears will it take
EXTD=ID3G: 2
EXTT0=
EXTT1=
EXTT2=
EXTT3=
EXTT4=
EXTT5=
EXTT6=
EXTT7=
EXTT8=
EXTT9=
EXTT10=
EXTT11=
EXTT12=
EXTT13=
EXTT14=
EXTT15=
PLAYORDER=
